<?xml version="1.0" encoding="UTF-8"?>
<svg width="1296px" height="240px" viewBox="0 0 1296 240" version="1.1" xmlns="http://www.w3.org/2000/svg" xmlns:xlink="http://www.w3.org/1999/xlink">
    <title>ycbm-logo@1x</title>
    <defs>
        <path d="M329.442216,168.528128 L300.090344,74.1709787 L313.688386,74.1709787 L334.41711,154.100936 L334.748769,154.100936 L356.140812,74.1709787 L369.738854,74.1709787 L342.376939,162.226596 C340.718642,167.698979 336.572897,181.131191 333.91962,185.774426 C329.110556,194.397574 322.477365,197.88 312.859237,197.88 C309.708471,197.88 306.557705,197.382511 303.406939,196.387532 L303.406939,184.779447 C306.391876,186.106085 310.040131,186.769404 313.190897,186.769404 C325.462301,186.769404 325.793961,177.648766 329.442216,168.528128 Z M438.843103,117.120894 C438.843103,157.085872 426.074209,168.859787 405.842975,168.859787 C385.943401,168.859787 372.842848,156.920043 372.842848,117.120894 C372.842848,89.2614894 383.124295,71.6835319 405.842975,71.6835319 C428.561656,71.6835319 438.843103,89.2614894 438.843103,117.120894 Z M425.245061,121.266638 C425.245061,93.407234 419.606848,82.7941277 405.842975,82.7941277 C392.410763,82.7941277 386.44089,93.407234 386.44089,121.266638 C386.44089,142.99034 390.586635,157.749191 405.842975,157.749191 C421.430975,157.749191 425.245061,142.99034 425.245061,121.266638 Z M496.007607,166.37234 L496.007607,154.266766 L495.675948,154.266766 C491.198543,163.719064 482.741224,168.859787 473.786416,168.859787 C460.022543,168.859787 451.565224,161.563277 451.565224,145.311957 L451.565224,74.1709787 L464.665777,74.1709787 L464.665777,145.809447 C464.665777,153.603447 467.153224,157.749191 476.439692,157.749191 C482.741224,157.749191 488.545267,154.930085 492.193522,149.623532 C495.178458,144.980298 496.007607,138.678766 496.007607,133.372213 L496.007607,74.1709787 L509.10816,74.1709787 L509.10816,166.37234 L496.007607,166.37234 Z M585.130488,82.7941277 C566.060062,82.7941277 567.055041,111.151021 567.055041,124.251574 C567.055041,136.357149 567.88419,157.749191 584.632998,157.749191 C598.89436,157.749191 600.220998,145.477787 600.884318,134.201362 L613.321552,134.201362 C612.824062,151.945149 606.190871,168.859787 585.627977,168.859787 C557.436913,168.859787 553.456998,145.311957 553.456998,121.432468 C553.456998,98.879617 557.105254,71.6835319 585.296318,71.6835319 C603.869254,71.6835319 612.824062,86.1107234 612.658232,103.191191 L600.386828,103.191191 C600.220998,93.0755745 597.567722,82.7941277 585.130488,82.7941277 Z M658.877971,139.010426 L658.877971,116.623404 C652.410609,120.437489 645.114098,123.256596 638.149247,126.573191 C632.013545,129.392298 630.023588,136.191319 630.023588,142.492851 C630.023588,151.779319 632.345205,157.749191 642.958311,157.749191 C647.933205,157.749191 658.877971,153.935106 658.877971,139.010426 Z M680.435843,156.754213 L680.435843,166.37234 C679.440864,166.53817 678.445885,166.704 677.450907,167.03566 C666.340311,167.533149 662.194566,166.53817 660.867928,153.935106 L660.536268,153.935106 C657.385502,162.060766 648.928183,168.859787 640.139205,168.859787 C621.732098,168.859787 616.425545,158.57834 616.425545,141.829532 C616.425545,138.347106 616.923034,125.080723 629.691928,119.442511 C637.154268,116.125915 655.727205,109.161064 657.385502,107.834426 C660.204609,105.678638 659.872949,102.030383 659.872949,97.2213191 C659.872949,86.7740426 655.893034,82.7941277 645.279928,82.7941277 C633.340183,82.7941277 631.681885,88.2665106 631.847715,99.0454468 L620.0738,99.0454468 C619.410481,79.9750213 628.862779,71.6835319 647.435715,71.6835319 C674.79763,71.6835319 672.476013,94.5680426 672.476013,96.7238298 L672.476013,149.623532 C672.476013,151.945149 672.144354,155.261745 674.79763,156.588383 C676.621758,157.085872 678.611715,156.920043 680.435843,156.754213 Z M701.283624,74.1709787 L701.283624,84.2865957 L701.615283,84.2865957 C707.916815,76.326766 714.715836,71.6835319 724.665624,71.6835319 C738.429496,71.6835319 747.384304,78.9800426 747.384304,95.2313617 L747.384304,166.37234 L734.283751,166.37234 L734.283751,98.879617 C734.283751,89.2614894 731.132985,82.7941277 720.519879,82.7941277 C715.710815,82.7941277 711.067581,84.6182553 707.585155,87.9348511 C702.278602,92.7439149 701.615283,98.0504681 701.615283,104.68366 L701.615283,166.37234 L688.51473,166.37234 L688.51473,74.1709787 L701.283624,74.1709787 Z M808.481951,122.593277 C808.481951,136.025489 808.316121,157.749191 826.889057,157.749191 C840.4871,157.749191 844.301185,143.48783 844.301185,118.613362 C844.301185,106.507787 843.472036,82.7941277 826.723227,82.7941277 C807.321142,82.7941277 808.481951,109.161064 808.481951,122.593277 Z M808.150291,155.427574 L808.150291,166.37234 L796.210547,166.37234 L796.210547,42 L809.3111,42 L809.3111,83.6232766 L809.642759,83.6232766 C814.783483,75.3317872 820.753355,71.6835319 828.879015,71.6835319 C852.261015,71.6835319 857.899227,95.3971915 857.899227,114.301787 C857.899227,140.502894 854.416802,168.859787 829.542334,168.859787 C821.582504,168.859787 813.954334,166.206511 808.481951,155.427574 L808.150291,155.427574 Z M932.641689,117.120894 C932.641689,157.085872 919.872795,168.859787 899.641561,168.859787 C879.741987,168.859787 866.641434,156.920043 866.641434,117.120894 C866.641434,89.2614894 876.922881,71.6835319 899.641561,71.6835319 C922.360242,71.6835319 932.641689,89.2614894 932.641689,117.120894 Z M919.043646,121.266638 C919.043646,93.407234 913.405434,82.7941277 899.641561,82.7941277 C886.209349,82.7941277 880.239476,93.407234 880.239476,121.266638 C880.239476,142.99034 884.385221,157.749191 899.641561,157.749191 C915.229561,157.749191 919.043646,142.99034 919.043646,121.266638 Z M1007.05249,117.120894 C1007.05249,157.085872 994.283597,168.859787 974.052363,168.859787 C954.152789,168.859787 941.052236,156.920043 941.052236,117.120894 C941.052236,89.2614894 951.333682,71.6835319 974.052363,71.6835319 C996.771044,71.6835319 1007.05249,89.2614894 1007.05249,117.120894 Z M993.454448,121.266638 C993.454448,93.407234 987.816236,82.7941277 974.052363,82.7941277 C960.620151,82.7941277 954.650278,93.407234 954.650278,121.266638 C954.650278,142.99034 958.796023,157.749191 974.052363,157.749191 C989.640363,157.749191 993.454448,142.99034 993.454448,121.266638 Z M1031.54853,166.37234 L1018.44797,166.37234 L1018.44797,42 L1031.54853,42 L1031.54853,117.120894 L1031.88019,117.120894 L1063.38785,74.1709787 L1078.97585,74.1709787 L1050.45312,109.990213 L1079.805,166.37234 L1064.54865,166.37234 L1041.49831,120.437489 L1031.54853,133.538043 L1031.54853,166.37234 Z M1130.78702,104.68366 L1130.78702,166.37234 L1117.68647,166.37234 L1117.68647,74.1709787 L1130.28954,74.1709787 L1130.28954,85.9448936 L1130.62119,85.9448936 C1134.93277,78.1508936 1142.8926,71.6835319 1152.51073,71.6835319 C1162.29468,71.6835319 1170.25451,77.4875745 1174.40026,86.2765532 C1180.86762,76.8242553 1187.50081,71.6835319 1199.1089,71.6835319 C1205.41043,71.6835319 1211.21447,73.8393191 1216.02354,78.1508936 C1221.99341,83.6232766 1221.66175,93.9047234 1221.66175,99.708766 L1221.66175,166.37234 L1208.56119,166.37234 L1208.56119,98.879617 C1208.56119,88.5981702 1205.74209,82.7941277 1194.46566,82.7941277 C1189.98826,82.9599574 1185.51085,84.7840851 1182.19426,87.9348511 C1176.88771,92.7439149 1176.22439,98.0504681 1176.22439,104.68366 L1176.22439,166.37234 L1163.12383,166.37234 L1163.12383,98.879617 C1163.12383,89.2614894 1159.97307,82.7941277 1149.35996,82.7941277 C1144.5509,82.7941277 1139.90766,84.6182553 1136.42524,87.9348511 C1131.11868,92.7439149 1130.78702,98.0504681 1130.78702,104.68366 Z M1246.32361,110.653532 L1277.49961,110.653532 C1277.00212,99.8745957 1277.66544,82.7941277 1262.4091,82.7941277 C1247.15276,82.7941277 1246.8211,99.708766 1246.32361,110.653532 Z M1278.16293,135.69383 L1290.43434,135.69383 C1291.26349,153.769277 1281.97702,168.859787 1262.57493,168.859787 C1245.16281,168.859787 1232.72557,157.251702 1232.72557,120.10583 C1232.72557,100.703745 1237.86629,71.6835319 1262.24327,71.6835319 C1292.09264,71.6835319 1290.43434,99.8745957 1291.09766,121.432468 L1246.32361,121.432468 C1246.65527,133.869702 1244.49949,157.749191 1262.90659,157.749191 C1275.50966,157.749191 1278.99208,146.141106 1278.16293,135.69383 Z" id="path-1"></path>
        <circle id="path-3" cx="1092" cy="120" r="6"></circle>
        <path d="M170,175.555556 L190,175.555556 L190,55.5555556 L170,55.5555556 L170,175.555556 Z M140,165.555556 L160,165.555556 L160,75.5555556 L140,75.5555556 L140,165.555556 Z M140,205.555556 L160,205.555556 L160,175.555556 L140,175.555556 L140,205.555556 Z M110,195.555556 L130,195.555556 L130,35.5555556 L110,35.5555556 L110,195.555556 Z M80,84.4444444 L100,84.4444444 L100,64.4444444 L80,64.4444444 L80,84.4444444 Z M80,185.555556 L100,185.555556 L100,95.5555556 L80,95.5555556 L80,185.555556 Z M50,194.444444 L70,194.444444 L70,54.4444444 L50,54.4444444 L50,194.444444 Z M188.888889,0 L51.1111111,0 C23,0 0,23 0,51.1111111 L0,188.888889 C0,217 23,240 51.1111111,240 L188.888889,240 C217,240 240,217 240,188.888889 L240,51.1111111 C240,23 217,0 188.888889,0 L188.888889,0 Z" id="path-5"></path>
        <path d="M232.500369,225 C236.642505,225 240.000369,228.357864 240.000369,232.5 C240.000369,236.642136 236.642505,240 232.500369,240 C228.358234,240 225.000369,236.642136 225.000369,232.5 C225.000369,228.357864 228.358234,225 232.500369,225 Z M232.500369,226.666667 C229.278708,226.666667 226.667036,229.278339 226.667036,232.5 C226.667036,235.721661 229.278708,238.333333 232.500369,238.333333 C235.722031,238.333333 238.333703,235.721661 238.333703,232.5 C238.333703,229.278339 235.722031,226.666667 232.500369,226.666667 Z M231.345169,230.292776 L231.345169,232.08382 L232.92364,232.08382 C233.237225,232.08382 233.47241,232.047638 233.629203,231.975272 C233.906605,231.848632 234.045304,231.598371 234.045304,231.224481 C234.045304,230.820438 233.911128,230.54907 233.642772,230.410369 C233.492009,230.331973 233.26587,230.292776 232.964346,230.292776 L231.345169,230.292776 Z M233.253807,229.134928 C233.72117,229.143974 234.080732,229.201263 234.332505,229.306796 C234.584277,229.41233 234.797603,229.567612 234.972487,229.772649 C235.117218,229.941502 235.231796,230.128445 235.316222,230.333481 C235.400649,230.538518 235.442862,230.772195 235.442862,231.034521 C235.442862,231.351122 235.362959,231.662441 235.203151,231.968488 C235.043344,232.274535 234.779514,232.490875 234.411654,232.617515 C234.719209,232.74114 234.937057,232.916776 235.065205,233.144426 C235.193353,233.372077 235.257426,233.719579 235.257426,234.186941 L235.257426,234.634702 C235.257426,234.939242 235.269486,235.145783 235.293608,235.254331 C235.329791,235.4262 235.414217,235.552838 235.546887,235.63425 L235.546887,235.801595 L234.013644,235.801595 C233.971431,235.653848 233.941279,235.534748 233.923188,235.444291 C233.887005,235.257346 233.867406,235.065881 233.864391,234.86989 L233.855345,234.250261 C233.849315,233.825112 233.771673,233.541683 233.622419,233.399967 C233.473164,233.25825 233.193505,233.187393 232.783432,233.187393 L231.345169,233.187393 L231.345169,235.801595 L229.983794,235.801595 L229.983794,229.134928 L233.253807,229.134928 Z" id="path-7"></path>
    </defs>
    <g id="ycbm-logo" stroke="none" stroke-width="1" fill="none" fill-rule="evenodd">
        <mask id="mask-2" fill="white">
            <use xlink:href="#path-1"></use>
        </mask>
        <use id="Logo" fill="#656D72" xlink:href="#path-1"></use>
        <mask id="mask-4" fill="white">
            <use xlink:href="#path-3"></use>
        </mask>
        <use id="Mask" fill="#679E8A" xlink:href="#path-3"></use>
        <mask id="mask-6" fill="white">
            <use xlink:href="#path-5"></use>
        </mask>
        <use id="Mask" fill="#679E8A" xlink:href="#path-5"></use>
        <mask id="mask-8" fill="white">
            <use xlink:href="#path-7"></use>
        </mask>
        <use id="Combined-Shape" fill="#679E8A" xlink:href="#path-7"></use>
    </g>
</svg>