<svg id="svg" version="1.1" xmlns="http://www.w3.org/2000/svg" xmlns:xlink="http://www.w3.org/1999/xlink" width="400" height="400" viewBox="0, 0, 400,400"><g id="svgg"><path id="path0" d="M191.200 196.000 L 191.200 268.000 200.000 268.000 L 208.800 268.000 208.800 196.000 L 208.800 124.000 200.000 124.000 L 191.200 124.000 191.200 196.000 M137.200 204.000 L 137.200 266.800 146.000 266.800 L 154.800 266.800 154.800 204.000 L 154.800 141.200 146.000 141.200 L 137.200 141.200 137.200 204.000 M245.200 196.000 L 245.200 250.000 254.000 250.000 L 262.800 250.000 262.800 196.000 L 262.800 142.000 254.000 142.000 L 245.200 142.000 245.200 196.000 M164.267 150.267 C 164.120 150.413,164.000 154.463,164.000 159.267 L 164.000 168.000 173.000 168.000 L 182.000 168.000 182.000 159.000 L 182.000 150.000 173.267 150.000 C 168.463 150.000,164.413 150.120,164.267 150.267 M218.267 160.267 C 218.120 160.413,218.000 178.593,218.000 200.667 L 218.000 240.800 227.000 240.800 L 236.000 240.800 236.000 200.400 L 236.000 160.000 227.267 160.000 C 222.463 160.000,218.413 160.120,218.267 160.267 M164.267 178.267 C 164.120 178.413,164.000 196.593,164.000 218.667 L 164.000 258.800 173.000 258.800 L 182.000 258.800 182.000 218.400 L 182.000 178.000 173.267 178.000 C 168.463 178.000,164.413 178.120,164.267 178.267 M218.267 250.267 C 218.120 250.413,218.000 256.443,218.000 263.667 L 218.000 276.800 227.000 276.800 L 236.000 276.800 236.000 263.400 L 236.000 250.000 227.267 250.000 C 222.463 250.000,218.413 250.120,218.267 250.267 " stroke="none" fill="#fcfcfc" fill-rule="evenodd"></path><path id="path1" d="M132.000 91.936 C 132.000 92.118,131.775 92.281,131.500 92.298 C 129.552 92.420,126.614 92.869,126.244 93.101 C 126.000 93.254,125.465 93.325,125.056 93.257 C 124.647 93.190,124.417 93.304,124.544 93.510 C 124.675 93.722,124.304 93.809,123.688 93.711 C 122.836 93.575,122.730 93.630,123.200 93.963 C 123.733 94.341,123.733 94.394,123.200 94.440 C 121.170 94.617,119.180 95.244,119.420 95.632 C 119.544 95.834,119.231 95.954,118.723 95.899 C 118.173 95.840,117.839 95.996,117.895 96.286 C 117.950 96.566,117.739 96.675,117.395 96.543 C 117.068 96.417,116.800 96.508,116.800 96.745 C 116.800 96.981,116.569 97.086,116.286 96.978 C 116.003 96.869,115.332 97.190,114.795 97.690 C 114.258 98.191,113.725 98.606,113.609 98.614 C 113.098 98.649,111.340 99.794,110.730 100.489 C 110.362 100.909,109.953 101.234,109.822 101.211 C 109.394 101.137,108.327 101.864,108.389 102.187 C 108.423 102.360,108.054 102.703,107.570 102.951 C 107.086 103.198,106.726 103.558,106.770 103.751 C 106.814 103.943,106.438 104.307,105.933 104.558 C 105.429 104.810,104.810 105.429,104.558 105.933 C 104.307 106.438,103.943 106.814,103.751 106.770 C 103.558 106.726,103.198 107.086,102.951 107.570 C 102.703 108.054,102.360 108.423,102.187 108.389 C 101.864 108.327,101.137 109.394,101.211 109.822 C 101.234 109.953,100.909 110.362,100.489 110.730 C 99.794 111.340,98.649 113.098,98.614 113.609 C 98.606 113.725,98.195 114.253,97.700 114.785 C 96.720 115.837,96.504 116.597,97.300 116.194 C 97.575 116.055,97.467 116.212,97.060 116.544 C 96.653 116.875,96.441 117.343,96.590 117.583 C 96.740 117.827,96.625 117.971,96.330 117.910 C 95.991 117.840,95.836 118.133,95.899 118.723 C 95.954 119.231,95.834 119.544,95.632 119.420 C 95.244 119.180,94.617 121.170,94.440 123.200 C 94.394 123.733,94.341 123.733,93.963 123.200 C 93.630 122.730,93.575 122.836,93.711 123.688 C 93.809 124.304,93.722 124.675,93.510 124.544 C 93.304 124.417,93.190 124.647,93.257 125.056 C 93.325 125.465,93.254 126.000,93.101 126.244 C 92.821 126.690,92.304 130.379,92.335 131.709 C 92.344 132.098,92.184 132.313,91.978 132.186 C 91.747 132.044,91.605 157.953,91.605 199.978 C 91.605 237.390,91.748 268.000,91.924 268.000 C 92.100 268.000,92.288 268.752,92.342 269.671 C 92.396 270.590,92.539 271.501,92.658 271.694 C 92.778 271.887,92.922 272.440,92.979 272.923 C 93.287 275.543,93.713 277.177,94.035 276.978 C 94.236 276.854,94.422 276.943,94.450 277.176 C 94.478 277.409,94.533 277.735,94.573 277.900 C 94.613 278.065,94.785 278.787,94.955 279.503 C 95.126 280.220,95.430 280.705,95.632 280.580 C 95.834 280.456,95.954 280.769,95.899 281.277 C 95.836 281.867,95.991 282.160,96.330 282.090 C 96.621 282.030,96.747 282.163,96.609 282.386 C 96.222 283.012,97.538 285.446,98.521 285.921 C 99.004 286.155,99.189 286.358,98.931 286.373 C 98.420 286.402,99.415 288.800,99.938 288.800 C 100.092 288.800,100.555 289.425,100.966 290.189 C 101.377 290.952,101.868 291.482,102.057 291.365 C 102.246 291.248,102.400 291.373,102.400 291.642 C 102.400 292.326,105.677 295.593,106.367 295.597 C 106.678 295.599,106.813 295.720,106.666 295.868 C 106.303 296.230,107.584 297.600,108.286 297.600 C 108.594 297.600,108.758 297.744,108.649 297.920 C 108.541 298.096,108.819 298.469,109.268 298.749 C 109.938 299.168,110.032 299.164,109.795 298.730 C 109.636 298.438,109.932 298.667,110.453 299.237 C 111.295 300.159,113.040 301.347,113.609 301.386 C 113.725 301.394,114.256 301.808,114.791 302.306 C 115.326 302.804,115.948 303.151,116.173 303.076 C 116.398 303.001,116.939 303.271,117.374 303.676 C 118.058 304.313,120.184 305.106,121.932 305.374 C 122.225 305.419,122.611 305.695,122.792 305.986 C 122.972 306.278,123.407 306.406,123.760 306.271 C 124.112 306.136,124.400 306.179,124.400 306.367 C 124.400 306.689,126.560 307.126,129.510 307.400 C 130.233 307.468,131.060 307.718,131.348 307.957 C 132.089 308.572,267.895 308.585,268.635 307.971 C 268.923 307.732,269.752 307.470,270.479 307.388 C 274.066 306.985,277.200 306.350,277.200 306.028 C 277.200 305.862,277.920 305.511,278.800 305.247 C 279.680 304.984,280.400 304.576,280.400 304.341 C 280.400 304.106,280.655 304.012,280.966 304.132 C 281.643 304.391,284.641 302.921,284.505 302.396 C 284.452 302.194,284.707 302.143,285.070 302.282 C 285.434 302.422,285.631 302.370,285.508 302.168 C 285.385 301.966,285.535 301.568,285.842 301.284 C 286.149 301.001,286.400 300.942,286.400 301.154 C 286.400 301.365,286.940 301.269,287.600 300.940 C 288.260 300.611,288.800 300.216,288.800 300.062 C 288.800 299.908,289.416 299.450,290.170 299.044 C 291.112 298.537,291.465 298.112,291.300 297.684 C 291.128 297.236,291.239 297.129,291.693 297.304 C 292.059 297.444,292.619 297.220,293.024 296.773 C 293.409 296.348,293.561 295.997,293.362 295.994 C 293.163 295.991,293.446 295.762,293.992 295.486 C 294.538 295.210,295.184 294.584,295.428 294.094 C 295.672 293.605,295.961 293.295,296.071 293.405 C 296.182 293.515,296.615 293.213,297.036 292.734 C 297.456 292.255,297.577 291.993,297.305 292.152 C 296.966 292.350,296.887 292.238,297.056 291.798 C 297.192 291.444,297.529 291.241,297.805 291.347 C 298.084 291.454,298.634 290.931,299.044 290.170 C 299.450 289.416,299.925 288.800,300.101 288.800 C 300.483 288.800,301.414 286.730,301.550 285.576 C 301.578 285.343,301.811 285.283,302.068 285.442 C 302.382 285.636,302.453 285.514,302.282 285.070 C 302.143 284.707,302.194 284.452,302.396 284.505 C 302.992 284.659,304.342 281.665,304.098 280.730 C 303.950 280.164,304.024 279.968,304.317 280.149 C 304.593 280.319,304.944 279.812,305.244 278.812 C 305.509 277.925,305.862 277.200,306.028 277.200 C 306.349 277.200,306.876 274.607,307.398 270.461 C 307.490 269.725,307.755 268.896,307.985 268.618 C 308.587 267.893,308.559 132.073,307.957 131.348 C 307.718 131.060,307.468 130.233,307.400 129.510 C 307.126 126.560,306.689 124.400,306.367 124.400 C 306.179 124.400,306.136 124.112,306.271 123.760 C 306.406 123.407,306.278 122.972,305.986 122.792 C 305.695 122.611,305.418 122.202,305.371 121.881 C 305.179 120.577,304.648 119.373,304.042 118.872 C 303.689 118.580,303.625 118.455,303.900 118.594 C 304.175 118.733,304.400 118.773,304.400 118.683 C 304.400 118.243,302.260 114.564,301.859 114.315 C 301.607 114.158,301.394 113.888,301.386 113.715 C 301.357 113.065,300.238 111.367,299.237 110.453 C 298.667 109.932,298.438 109.636,298.730 109.795 C 299.164 110.032,299.168 109.938,298.749 109.268 C 298.469 108.819,298.096 108.541,297.920 108.649 C 297.744 108.758,297.600 108.594,297.600 108.286 C 297.600 107.584,296.230 106.303,295.868 106.666 C 295.720 106.813,295.599 106.678,295.597 106.367 C 295.593 105.677,292.326 102.400,291.642 102.400 C 291.373 102.400,291.248 102.246,291.365 102.057 C 291.482 101.868,290.952 101.377,290.189 100.966 C 289.425 100.555,288.800 100.092,288.800 99.938 C 288.800 99.415,286.402 98.420,286.373 98.931 C 286.358 99.189,286.155 99.004,285.921 98.521 C 285.446 97.538,283.012 96.222,282.386 96.609 C 282.163 96.747,282.030 96.621,282.090 96.330 C 282.160 95.991,281.867 95.836,281.277 95.899 C 280.769 95.954,280.456 95.834,280.580 95.632 C 280.767 95.329,279.116 94.711,277.885 94.623 C 277.712 94.610,277.442 94.398,277.285 94.150 C 277.006 93.710,275.801 93.357,273.400 93.011 C 272.740 92.916,271.750 92.740,271.200 92.620 C 270.650 92.501,269.705 92.364,269.100 92.316 C 268.495 92.269,268.000 92.089,268.000 91.917 C 268.000 91.745,237.400 91.605,200.000 91.605 C 162.600 91.605,132.000 91.754,132.000 91.936 M209.200 196.000 L 209.200 268.400 200.000 268.400 L 190.800 268.400 190.800 196.000 L 190.800 123.600 200.000 123.600 L 209.200 123.600 209.200 196.000 M155.200 204.000 L 155.200 267.200 146.000 267.200 L 136.800 267.200 136.800 204.000 L 136.800 140.800 146.000 140.800 L 155.200 140.800 155.200 204.000 M263.200 196.000 L 263.200 250.400 254.000 250.400 L 244.800 250.400 244.800 196.000 L 244.800 141.600 254.000 141.600 L 263.200 141.600 263.200 196.000 M182.307 159.107 L 182.415 168.415 173.107 168.307 L 163.800 168.200 163.692 159.409 C 163.633 154.575,163.673 150.386,163.782 150.102 C 163.938 149.696,165.934 149.608,173.090 149.692 L 182.200 149.800 182.307 159.107 M236.302 200.500 L 236.404 241.200 227.002 241.200 L 217.600 241.200 217.600 200.667 C 217.600 178.373,217.723 160.010,217.874 159.859 C 218.025 159.709,222.210 159.634,227.174 159.693 L 236.200 159.800 236.302 200.500 M182.302 218.500 L 182.404 259.200 173.002 259.200 L 163.600 259.200 163.600 218.667 C 163.600 196.373,163.723 178.010,163.874 177.859 C 164.025 177.709,168.210 177.634,173.174 177.693 L 182.200 177.800 182.302 218.500 M236.305 263.500 L 236.411 277.200 227.005 277.200 L 217.600 277.200 217.600 263.667 C 217.600 256.223,217.723 250.010,217.874 249.859 C 218.025 249.709,222.210 249.634,227.174 249.693 L 236.200 249.800 236.305 263.500 M298.196 294.807 C 298.058 295.030,297.815 295.133,297.657 295.035 C 297.499 294.937,296.746 295.495,295.985 296.273 C 294.511 297.780,293.532 304.400,294.783 304.400 C 295.038 304.400,295.163 304.537,295.059 304.704 C 294.956 304.872,295.125 305.356,295.435 305.781 C 295.746 306.205,296.000 306.388,296.000 306.187 C 296.000 305.986,296.280 306.222,296.623 306.711 C 296.965 307.200,297.505 307.600,297.823 307.600 C 298.140 307.600,298.400 307.779,298.400 307.999 C 298.400 308.231,299.601 308.379,301.271 308.354 L 304.142 308.310 306.226 306.226 L 308.310 304.142 308.354 301.271 C 308.378 299.692,308.261 298.400,308.094 298.400 C 307.926 298.400,307.605 297.995,307.380 297.500 C 307.155 297.005,306.735 296.651,306.448 296.713 C 306.160 296.774,306.005 296.594,306.102 296.313 C 306.602 294.863,299.050 293.424,298.196 294.807 M300.800 296.400 C 300.347 296.693,300.543 296.796,301.600 296.822 C 303.981 296.880,305.600 298.266,305.600 300.246 C 305.600 300.551,305.780 300.800,306.000 300.800 C 306.220 300.800,306.397 301.205,306.394 301.700 C 306.389 302.428,306.314 302.485,306.000 302.000 C 305.680 301.505,305.611 301.544,305.606 302.220 C 305.603 302.671,305.375 303.282,305.100 303.579 C 304.689 304.021,304.741 304.067,305.391 303.837 C 306.086 303.589,306.065 303.679,305.217 304.582 C 304.586 305.254,304.157 305.454,303.976 305.162 C 303.775 304.836,303.626 304.834,303.426 305.157 C 303.276 305.401,302.758 305.603,302.276 305.606 C 301.564 305.611,301.512 305.685,302.000 306.000 C 302.519 306.335,302.510 306.389,301.933 306.394 C 301.567 306.397,301.205 306.216,301.130 305.991 C 301.056 305.767,300.313 305.557,299.479 305.526 C 297.872 305.466,298.251 304.817,299.900 304.806 C 300.632 304.801,300.800 304.576,300.800 303.600 C 300.800 302.940,300.980 302.400,301.200 302.400 C 301.420 302.400,301.600 302.670,301.600 303.000 C 301.600 303.330,301.780 303.600,302.000 303.600 C 302.220 303.600,302.400 303.858,302.400 304.173 C 302.400 304.539,302.798 304.736,303.500 304.716 L 304.600 304.686 304.469 301.538 C 304.394 299.731,304.180 298.489,303.967 298.621 C 303.762 298.747,303.486 298.569,303.354 298.225 C 303.177 297.764,302.542 297.600,300.934 297.600 C 299.387 297.600,298.836 297.734,299.038 298.062 C 299.215 298.348,299.148 298.415,298.862 298.238 C 298.526 298.031,298.400 298.890,298.400 301.376 C 298.400 305.927,297.013 306.215,296.844 301.700 C 296.802 300.574,296.691 300.349,296.400 300.800 C 296.146 301.193,296.010 301.229,296.006 300.905 C 296.003 300.632,296.271 300.092,296.603 299.705 C 296.935 299.317,297.160 298.893,297.103 298.761 C 296.939 298.383,298.059 297.189,298.388 297.393 C 298.551 297.494,299.026 297.232,299.443 296.812 C 299.859 296.391,300.470 296.040,300.800 296.030 C 301.333 296.014,301.333 296.055,300.800 296.400 M302.200 300.000 C 302.336 300.220,302.077 300.400,301.624 300.400 C 301.171 300.400,300.800 300.220,300.800 300.000 C 300.800 299.780,301.059 299.600,301.376 299.600 C 301.693 299.600,302.064 299.780,302.200 300.000 " stroke="none" fill="#649c8c" fill-rule="evenodd"></path><path id="path2" d="M195.300 123.899 C 197.885 123.968,202.115 123.968,204.700 123.899 C 207.285 123.829,205.170 123.772,200.000 123.772 C 194.830 123.772,192.715 123.829,195.300 123.899 M249.300 141.899 C 251.885 141.968,256.115 141.968,258.700 141.899 C 261.285 141.829,259.170 141.772,254.000 141.772 C 248.830 141.772,246.715 141.829,249.300 141.899 M163.782 150.102 C 163.673 150.386,163.633 154.575,163.692 159.409 L 163.800 168.200 173.107 168.307 L 182.415 168.415 182.307 159.107 L 182.200 149.800 173.090 149.692 C 165.934 149.608,163.938 149.696,163.782 150.102 M182.000 159.000 L 182.000 168.000 173.000 168.000 L 164.000 168.000 164.000 159.000 L 164.000 150.000 173.000 150.000 L 182.000 150.000 182.000 159.000 M217.787 160.092 C 217.681 160.372,217.641 178.780,217.699 201.000 L 217.804 241.400 217.902 200.700 L 218.000 160.000 226.998 160.000 L 235.996 160.000 236.101 200.700 L 236.206 241.400 236.203 200.600 L 236.200 159.800 227.090 159.692 C 220.019 159.609,217.937 159.699,217.787 160.092 M163.787 178.092 C 163.681 178.372,163.641 196.780,163.699 219.000 L 163.804 259.400 163.902 218.700 L 164.000 178.000 172.998 178.000 L 181.996 178.000 182.101 218.700 L 182.206 259.400 182.203 218.600 L 182.200 177.800 173.090 177.692 C 166.019 177.609,163.937 177.699,163.787 178.092 M217.785 250.095 C 217.677 250.376,217.639 256.634,217.700 264.003 L 217.811 277.400 217.906 263.700 L 218.000 250.000 226.995 250.000 L 235.989 250.000 236.103 263.600 L 236.216 277.200 236.208 263.500 L 236.200 249.800 227.090 249.692 C 219.994 249.609,217.937 249.698,217.785 250.095 M249.300 250.299 C 251.885 250.368,256.115 250.368,258.700 250.299 C 261.285 250.229,259.170 250.172,254.000 250.172 C 248.830 250.172,246.715 250.229,249.300 250.299 M195.300 268.299 C 197.885 268.368,202.115 268.368,204.700 268.299 C 207.285 268.229,205.170 268.172,200.000 268.172 C 194.830 268.172,192.715 268.229,195.300 268.299 M305.032 304.226 C 304.688 304.570,304.227 304.740,304.008 304.605 C 303.775 304.461,303.712 304.625,303.856 305.001 C 304.072 305.564,306.000 304.421,306.000 303.730 C 306.000 303.441,305.624 303.633,305.032 304.226 " stroke="none" fill="#6c9c8c" fill-rule="evenodd"></path><path id="path3" d="" stroke="none" fill="#d8cc100" fill-rule="evenodd"></path><path id="path4" d="M190.996 196.000 C 190.996 235.710,191.043 251.955,191.100 232.100 C 191.157 212.245,191.157 179.755,191.100 159.900 C 191.043 140.045,190.996 156.290,190.996 196.000 M208.996 196.000 C 208.996 235.710,209.043 251.955,209.100 232.100 C 209.157 212.245,209.157 179.755,209.100 159.900 C 209.043 140.045,208.996 156.290,208.996 196.000 M136.800 204.000 L 136.800 267.200 146.000 267.200 L 155.200 267.200 155.200 204.000 L 155.200 140.800 146.000 140.800 L 136.800 140.800 136.800 204.000 M154.800 204.000 L 154.800 266.800 146.000 266.800 L 137.200 266.800 137.200 204.000 L 137.200 141.200 146.000 141.200 L 154.800 141.200 154.800 204.000 M244.994 196.000 C 244.994 225.810,245.042 238.005,245.100 223.100 C 245.158 208.195,245.158 183.805,245.100 168.900 C 245.042 153.995,244.994 166.190,244.994 196.000 M262.994 196.000 C 262.994 225.810,263.042 238.005,263.100 223.100 C 263.158 208.195,263.158 183.805,263.100 168.900 C 263.042 153.995,262.994 166.190,262.994 196.000 M222.523 241.099 C 225.120 241.169,229.260 241.168,231.723 241.098 C 234.185 241.028,232.060 240.971,227.000 240.972 C 221.940 240.972,219.925 241.029,222.523 241.099 M168.523 259.099 C 171.120 259.169,175.260 259.168,177.723 259.098 C 180.185 259.028,178.060 258.971,173.000 258.972 C 167.940 258.972,165.925 259.029,168.523 259.099 M222.523 277.099 C 225.120 277.169,229.260 277.168,231.723 277.098 C 234.185 277.028,232.060 276.971,227.000 276.972 C 221.940 276.972,219.925 277.029,222.523 277.099 " stroke="none" fill="#88ccc8" fill-rule="evenodd"></path></g></svg>